<svg width="48" height="48" viewBox="0 0 48 48" fill="none" xmlns="http://www.w3.org/2000/svg">
<path d="M32 9C32 13.4183 28.4183 17 24 17C19.5817 17 16 13.4183 16 9C16 4.58172 19.5817 1 24 1C28.4183 1 32 4.58172 32 9Z" fill="black"/>
<path d="M18 16C18 20.4183 14.4183 24 10 24C5.58172 24 2 20.4183 2 16C2 11.5817 5.58172 8 10 8C14.4183 8 18 11.5817 18 16Z" fill="black"/>
<path d="M18 32C18 36.4183 14.4183 40 10 40C5.58172 40 2 36.4183 2 32C2 27.5817 5.58172 24 10 24C14.4183 24 18 27.5817 18 32Z" fill="black"/>
<path d="M32 39C32 43.4183 28.4183 47 24 47C19.5817 47 16 43.4183 16 39C16 34.5817 19.5817 31 24 31C28.4183 31 32 34.5817 32 39Z" fill="black"/>
<path d="M46 32C46 36.4183 42.4183 40 38 40C33.5817 40 30 36.4183 30 32C30 27.5817 33.5817 24 38 24C42.4183 24 46 27.5817 46 32Z" fill="black"/>
<path d="M46 16C46 20.4183 42.4183 24 38 24C33.5817 24 30 20.4183 30 16C30 11.5817 33.5817 8 38 8C42.4183 8 46 11.5817 46 16Z" fill="black"/>
</svg>
