<svg xmlns="http://www.w3.org/2000/svg" width="1em" height="1em" viewBox="0 0 24 24"><g fill="none" stroke="currentColor" stroke-linecap="round" stroke-linejoin="round" stroke-width="1.5" color="currentColor"><path d="M16 17H9m7-4h-3m7.5 1c0 3.771 0 5.657-1.245 6.828S16.007 22 12 22h-.773c-3.26 0-4.892 0-6.024-.798a4.1 4.1 0 0 1-.855-.805c-.848-1.066-.848-2.6-.848-5.67v-2.545c0-2.963 0-4.445.469-5.628c.754-1.903 2.348-3.403 4.37-4.113C9.595 2 11.168 2 14.318 2c1.798 0 2.698 0 3.416.252c1.155.406 2.066 1.263 2.497 2.35c.268.676.268 1.523.268 3.216z"/><path d="M3.5 12a3.333 3.333 0 0 1 3.333-3.333c.666 0 1.451.116 2.098-.057a1.67 1.67 0 0 0 1.179-1.18c.173-.647.057-1.432.057-2.098A3.333 3.333 0 0 1 13.5 2"/></g></svg>