<svg xmlns="http://www.w3.org/2000/svg" width="1em" height="1em" viewBox="0 0 24 24"><g fill="none" stroke="currentColor" stroke-linecap="round" stroke-linejoin="round" stroke-width="1.5" color="currentColor"><path d="M2.5 12c0-4.478 0-6.718 1.391-8.109S7.521 2.5 12 2.5c4.478 0 6.718 0 8.109 1.391S21.5 7.521 21.5 12c0 4.478 0 6.718-1.391 8.109S16.479 21.5 12 21.5c-4.478 0-6.718 0-8.109-1.391S2.5 16.479 2.5 12"/><path d="M6 8c0-.943 0-1.414.293-1.707S7.057 6 8 6h.5c.943 0 1.414 0 1.707.293S10.5 7.057 10.5 8v7c0 .943 0 1.414-.293 1.707S9.443 17 8.5 17H8c-.943 0-1.414 0-1.707-.293S6 15.943 6 15zm7.5 0c0-.943 0-1.414.293-1.707S14.557 6 15.5 6h.5c.943 0 1.414 0 1.707.293S18 7.057 18 8v2c0 .943 0 1.414-.293 1.707S16.943 12 16 12h-.5c-.943 0-1.414 0-1.707-.293S13.5 10.943 13.5 10z"/></g></svg>