<svg xmlns="http://www.w3.org/2000/svg" width="1em" height="1em" viewBox="0 0 24 24"><path fill="none" stroke="currentColor" stroke-linecap="round" stroke-linejoin="round" stroke-width="1.5" d="M2.5 6c0-1.54 0-2.31.347-2.876c.194-.317.46-.583.777-.777C4.189 2 4.96 2 6.5 2s2.31 0 2.876.347c.317.194.583.46.777.777c.347.565.347 1.336.347 2.876s0 2.31-.347 2.876c-.194.317-.46.583-.777.777C8.811 10 8.04 10 6.5 10s-2.31 0-2.876-.347a2.35 2.35 0 0 1-.777-.777C2.5 8.311 2.5 7.54 2.5 6m1.282 8.782c1.047-1.047 1.57-1.57 2.19-1.72a2.26 2.26 0 0 1 1.056 0c.62.15 1.143.673 2.19 1.72s1.57 1.57 1.72 2.19a2.3 2.3 0 0 1 0 1.056c-.15.62-.673 1.144-1.72 2.19s-1.57 1.57-2.19 1.72a2.26 2.26 0 0 1-1.056 0c-.62-.15-1.143-.673-2.19-1.72s-1.57-1.57-1.72-2.19a2.26 2.26 0 0 1 0-1.056c.15-.62.673-1.144 1.72-2.19M14 18c0-1.54 0-2.31.347-2.876c.194-.317.46-.583.777-.777C15.689 14 16.46 14 18 14s2.31 0 2.877.347c.316.194.582.46.776.777C22 15.689 22 16.46 22 18s0 2.31-.347 2.877a2.36 2.36 0 0 1-.776.776C20.31 22 19.54 22 18 22s-2.31 0-2.876-.347a2.35 2.35 0 0 1-.777-.776C14 20.31 14 19.54 14 18m4-16v8m4-4h-8" color="currentColor"/></svg>