<svg xmlns="http://www.w3.org/2000/svg" width="1em" height="1em" viewBox="0 0 16 16"><path fill="currentColor" d="m9 10.114l1.85-1.943a.52.52 0 0 1 .77 0c.214.228.214.6 0 .829l-1.95 2.05a1.55 1.55 0 0 1-2.31 0L5.41 9a.617.617 0 0 1 0-.829a.52.52 0 0 1 .77 0L8 10.082V1.556C8 1.249 8.224 1 8.5 1s.5.249.5.556zM4.18 6a.99.99 0 0 0-.972.804l-1.189 6Q2 12.9 2 13c0 .552.444 1 .99 1h11.02q.098 0 .194-.02a1 1 0 0 0 .778-1.176l-1.19-6a.99.99 0 0 0-.97-.804zM6 5v1h5V5h1.825c.946 0 1.76.673 1.946 1.608l1.19 6A2 2 0 0 1 14.016 15H2.984a1.992 1.992 0 0 1-1.945-2.392l1.19-6C2.414 5.673 3.229 5 4.174 5z"/></svg>